<?xml version="1.0" encoding="UTF-8"?>
<svg id="Layer_2" data-name="Layer 2" xmlns="http://www.w3.org/2000/svg" viewBox="0 0 40 40">
  <defs>
    <style>
      .cls-1 {
        fill: #502d90;
      }
    </style>
  </defs>
  <g id="Layer_1-2" data-name="Layer 1">
    <path class="cls-1" d="M40,20c0,11.05-8.95,20-20,20H6c-3.31,0-6-2.69-6-6v-13H8.77c2,0,4.08,.12,5.78,1.17,2.47,1.52,4.16,4.04,4.63,6.9l.06,.38c.14,.42,.6,.64,1.02,.5,.23-.08,.42-.26,.5-.5l.06-.38c.69-4.24,4.02-7.56,8.26-8.26l.38-.06c.42-.14,.64-.6,.5-1.02-.08-.23-.26-.42-.5-.5l-.38-.06c-2.86-.47-5.38-2.16-6.9-4.63-1.05-1.7-1.17-3.78-1.17-5.78V.02c10.58,.52,19,9.27,19,19.98Z"/>
    <path class="cls-1" d="M19,0V8.77c0,2-.12,4.08-1.17,5.78-.82,1.33-1.94,2.45-3.27,3.27-1.7,1.05-3.78,1.17-5.78,1.17H0V6C0,2.69,2.69,0,6,0h13Zm19,40c-1.1,0-2-.9-2-2s.9-2,2-2,2,.9,2,2-.9,2-2,2Z"/>
  </g>
</svg>